PathFileType	4	(X/Y/Z)	 s06c0302.trc
DataRate	CameraRate	NumFrames	NumMarkers	Units	OrigDataRate	OrigDataStartFrame	OrigNumFrames
200	200	4	48	mm	200	751	2000
Frame#	Time	racr			lacr			c7			jug			rlel			rdr			llel			ldr			s2			lic			ric			lasi			rasi			rpsi			lpsi			rgt			lgt			rth1			rth2			rth3			rth4			rlfc			rmfc			rsh1			rsh2			rsh3			rsh4			rlmal			rcal			rtoe			rmt5			lth1			lth2			lth4			lth3			llfc			lmfc			llmal			lcal			lmt5			lsh1			lsh2			lsh3			lsh4			ltoe			SBIKE			LBIKE			RBIKE			
		X1	Y1	Z1	X2	Y2	Z2	X3	Y3	Z3	X4	Y4	Z4	X5	Y5	Z5	X6	Y6	Z6	X7	Y7	Z7	X8	Y8	Z8	X9	Y9	Z9	X10	Y10	Z10	X11	Y11	Z11	X12	Y12	Z12	X13	Y13	Z13	X14	Y14	Z14	X15	Y15	Z15	X16	Y16	Z16	X17	Y17	Z17	X18	Y18	Z18	X19	Y19	Z19	X20	Y20	Z20	X21	Y21	Z21	X22	Y22	Z22	X23	Y23	Z23	X24	Y24	Z24	X25	Y25	Z25	X26	Y26	Z26	X27	Y27	Z27	X28	Y28	Z28	X29	Y29	Z29	X30	Y30	Z30	X31	Y31	Z31	X32	Y32	Z32	X33	Y33	Z33	X34	Y34	Z34	X35	Y35	Z35	X36	Y36	Z36	X37	Y37	Z37	X38	Y38	Z38	X39	Y39	Z39	X40	Y40	Z40	X41	Y41	Z41	X42	Y42	Z42	X43	Y43	Z43	X44	Y44	Z44	X45	Y45	Z45	X46	Y46	Z46	X47	Y47	Z47	X48	Y48	Z48	
751	3.7550	716.841287	1248.195977	-76.665934	746.885947	1178.050732	-383.978229	761.072455	1283.545054	-236.045481	690.230739	1131.888634	-213.091004	581.081987	1067.029984	72.099512	719.820194	920.673447	-29.516855	534.594450	1042.233581	-495.219274	702.302809	936.807267	-404.979928	182.448184	1236.644828	-220.150361	316.608180	1154.403390	-391.985469	320.463535	1161.876697	-56.119171	316.833587	1153.998325	-392.080100	344.326691	1115.085098	-93.308072	221.603173	1255.815046	-180.793133	219.378249	1255.972665	-243.394610	286.749451	1083.787294	-22.149868	282.888399	1104.158775	-414.077606	355.635990	974.790627	-25.848117	413.430658	906.518348	-38.234783	430.515251	821.771919	-40.913576	440.162371	923.100943	-60.492006	433.942934	718.975186	-58.171377	408.892963	700.805522	-166.321189	339.519564	641.144866	-30.423640	280.688552	580.641935	-50.609280	197.335113	550.623379	-49.864525	292.225200	566.277308	-87.077144	122.570056	520.399202	-52.224841	73.072097	561.320611	-98.960879	144.194251	292.901229	-92.000984	94.855591	380.551055	-25.788786	310.374814	983.085975	-435.391564	365.481826	915.908404	-431.313930	398.267473	930.641982	-421.046322	379.218845	827.364600	-425.880202	400.936882	709.073316	-404.078669	415.780426	694.923474	-291.292773	289.201179	353.775166	-371.828511	216.194510	345.021208	-322.351376	389.913641	256.195694	-401.302891	369.770169	603.272253	-419.047519	366.902375	519.008030	-396.859965	321.085533	443.809349	-387.909096	395.662775	516.177835	-369.534097	475.196814	236.070855	-344.659508	-203.986984	867.891287	-202.081004	-51.996748	83.915517	-409.424411	-50.406994	80.030239	-12.403657	
752	3.7600	715.510332	1248.562045	-75.164110	748.975689	1176.063319	-380.984017	761.674886	1284.280949	-233.815963	691.611174	1132.072214	-211.859653	579.963359	1065.996906	72.155167	719.844490	920.445413	-29.888025	539.532460	1043.331771	-496.733444	702.819214	936.279902	-405.315940	181.750070	1232.639409	-219.954506	317.758857	1150.078044	-392.378338	320.505421	1161.681612	-56.592652	318.089008	1149.707228	-392.547586	345.452905	1115.130753	-93.303287	221.597703	1253.445433	-182.697345	219.333808	1252.878079	-244.371170	286.989893	1082.280887	-22.123864	283.076968	1098.431995	-414.056658	359.432433	976.554872	-24.942821	418.827510	909.887686	-37.015482	438.261255	825.749687	-39.401226	445.431215	927.167935	-58.991359	443.506632	723.978292	-57.295273	419.900448	707.486454	-165.736914	348.221133	647.207931	-30.264681	288.403048	587.729939	-50.335996	204.437793	559.071868	-49.735954	299.629253	573.209868	-86.871144	128.849124	530.049486	-52.176080	79.238229	571.326029	-99.008074	149.077828	302.508846	-92.373052	100.329541	390.552980	-25.946483	309.660761	975.849671	-434.823220	363.183823	907.475800	-430.429839	396.291082	921.490889	-420.129192	374.762493	818.688440	-424.437300	394.980292	700.776609	-403.261392	407.440176	686.235873	-289.979781	286.625685	344.879683	-371.813062	213.768028	337.446690	-322.441033	385.904729	245.328230	-401.255527	364.592771	594.931994	-418.355387	362.637461	510.556630	-396.366599	317.580465	434.858979	-387.669889	391.327629	507.571060	-368.360958	470.641314	223.519957	-344.493606	-203.816406	867.908016	-202.356757	-52.019244	83.768530	-409.375076	-50.362650	80.092235	-12.453464	
753	3.7650	714.223833	1248.874628	-73.532952	750.896831	1175.218199	-378.668149	762.081394	1285.232347	-231.576096	692.732036	1132.496298	-210.737015	578.933598	1064.831009	72.225473	719.856106	920.274209	-30.184330	541.208249	1043.507735	-497.744514	703.303741	935.261493	-404.998894	181.324477	1229.224307	-219.657964	319.180543	1145.847632	-392.890300	320.479808	1161.845939	-57.194209	319.556752	1145.443421	-393.019847	346.292260	1115.184294	-93.091099	222.049949	1251.187857	-185.509038	219.485201	1249.941935	-246.139874	287.077509	1081.779594	-21.670096	283.154622	1092.672726	-413.922211	363.147096	979.188536	-24.194955	424.354908	913.881154	-36.562736	445.619280	830.265820	-38.289402	450.344433	931.668104	-56.711428	452.746582	728.845267	-56.456817	428.299598	713.072856	-165.217539	357.169880	653.133057	-29.723672	296.416897	594.943798	-50.016870	211.967210	567.407486	-49.508555	307.234742	580.229809	-86.795003	135.615743	539.608397	-52.168580	86.259489	581.021760	-98.854473	154.695343	312.122007	-92.672874	106.398477	400.111164	-26.162159	308.415997	968.737395	-434.648903	360.427254	899.263400	-429.699808	393.804521	912.578300	-419.431545	369.666083	810.028345	-423.225425	389.010355	692.627338	-402.540809	399.096623	677.621317	-288.913384	283.245734	336.141903	-371.734703	210.680578	330.152416	-322.439882	381.151024	234.872697	-401.136314	359.102487	586.542317	-417.674252	357.937778	502.143533	-395.849385	313.522831	426.035080	-387.519399	386.541103	499.395569	-367.802367	465.507946	211.216161	-344.315723	-203.668964	867.889144	-202.582637	-51.937148	83.643361	-409.377193	-50.294005	80.108629	-12.478570	
754	3.7700	713.050898	1249.185983	-71.841621	749.872648	1176.433574	-379.076877	762.232494	1286.422914	-229.453989	690.691530	1134.425876	-210.372203	577.891276	1063.871484	72.375050	719.939368	920.157511	-30.483461	542.989108	1044.076627	-498.582468	704.240110	934.373911	-404.595221	181.473342	1225.273023	-221.215646	320.907179	1141.571013	-393.362116	320.223763	1162.036170	-58.176664	321.242081	1141.225695	-393.480273	346.157914	1115.020013	-93.450786	221.255408	1249.009075	-187.486354	219.570248	1247.225188	-248.248158	287.171519	1082.267732	-21.218174	283.315592	1087.077535	-413.980802	366.416945	982.747185	-23.149202	429.271132	918.786003	-33.884258	452.504483	835.121278	-36.659890	455.225895	937.214622	-54.287931	461.859223	733.850187	-55.529011	438.261762	718.999500	-164.451652	366.223568	659.538117	-29.138478	304.774500	602.211069	-49.608139	219.882361	575.806126	-49.225861	315.331939	587.438572	-86.498077	142.931671	548.751656	-52.016614	93.578822	590.461883	-98.902948	161.076425	321.324189	-93.025154	113.046202	409.439370	-26.413474	306.663601	961.865998	-434.590527	357.244518	891.398955	-429.126273	390.878856	904.118588	-418.892440	364.728217	801.952945	-422.210215	382.626723	684.753214	-402.040593	390.589723	669.311978	-287.997829	279.086666	327.794184	-371.769862	206.936857	323.204528	-322.561904	375.817697	224.689403	-400.958521	353.454711	578.426809	-417.332844	352.815252	493.891215	-395.464320	309.000546	417.428988	-387.329987	381.256208	491.325606	-367.149234	459.622523	199.383459	-344.116978	-203.548795	867.880113	-202.737463	-51.950699	83.553118	-409.320882	-50.242905	80.121941	-12.515360	
